# xmcd CD database file
#
# Track frame offsets:
#	150
#	11855
#	30583
#	51253
#	70613
#	93669
#	127512
#	144464
#	161174
#	179910
#	199645
#	216542
#	232962
#
# Disc length: 3267 seconds
#
# Revision: 2
# Processed by: cddbd v1.5.2PL0 Copyright (c) Steve Scherf et al.
# Submitted via: CDex 1.51
#
DISCID=ba0cc10d
DTITLE=Ron Evans Group - 65 to 97
DYEAR=2001
DGENRE=Blues
TTITLE0=Lie To Me
TTITLE1=Neonlights In The City
TTITLE2=After Midnight
TTITLE3=The Pusher
TTITLE4=Runaway Girl
TTITLE5=Rock Me
TTITLE6=The Thrill Is Gone
TTITLE7=Everyday Blues
TTITLE8=Let It Rain
TTITLE9=Sensitive Kind
TTITLE10=Suspicious
TTITLE11=Thing For You
TTITLE12=Twelve Bar Boogie
EXTD=YEAR: 2001
EXTT0=
EXTT1=
EXTT2=
EXTT3=
EXTT4=
EXTT5=
EXTT6=
EXTT7=
EXTT8=
EXTT9=
EXTT10=
EXTT11=
EXTT12=
PLAYORDER=
